<svg xmlns="http://www.w3.org/2000/svg" width="154" height="44" fill="none" xmlns:v="https://vecta.io/nano"><path d="M7.484 10.406l-.457 1.828-.562 2.672-.633 3.199-.598 3.27-.457 3.059-.246 2.391v2.145l.105 1.898c.07.68.188 1.277.352 1.793-.398.188-.75.316-1.055.387l-.738.211c-.234.047-.434.07-.598.07a3.81 3.81 0 0 1-.668-.07c-.258-.023-.492-.141-.703-.352s-.387-.539-.527-.984-.187-1.09-.141-1.934c.023-.562.117-1.266.281-2.109l.527-2.707.703-3.094.809-3.129.703-2.918.598-2.355.703-2.953 2.004-8.648c.164-.117.34-.223.527-.316l.492-.281c.164-.094.328-.164.492-.211.75-.281 1.277-.316 1.582-.105.328.211.516.633.563 1.266l.141 1.828.246 2.672.176 3.059.07 2.883.035 2.074.105 2.531.176 2.742.246 2.637.281 2.32.352 1.723.141.527a4.13 4.13 0 0 1 .176.492l.457-2.004.563-2.461.598-2.707.492-2.637.387-2.531.492-3.34-.738-.281c-.211-.094-.422-.211-.633-.351s-.387-.305-.527-.492l.07-.668c.047-.141.164-.152.351-.035.141.07.352.152.633.246.305.094.656.164 1.055.211l.387-1.969.492-1.898c.258-1.008.551-1.91.879-2.707.328-.82.703-1.512 1.125-2.074.445-.563.961-.996 1.547-1.301s1.266-.469 2.039-.492c.727 0 1.313.305 1.758.914.469.586.668 1.617.598 3.094-.047 1.102-.281 2.098-.703 2.988-.398.867-.891 1.641-1.477 2.32a9.16 9.16 0 0 1-1.933 1.652c-.703.422-1.371.727-2.004.914l-.598 3.34-.562 3.234-.527 2.953-.492 2.496-.527 2.285-.598 2.426-.738 2.883a1.73 1.73 0 0 1-.352.527c-.141.164-.281.293-.422.387-.164.117-.328.211-.492.281-.469.188-.867.223-1.195.106s-.621-.434-.879-.949c-.258-.539-.492-1.207-.703-2.004l-.598-2.602c-.211-1.008-.375-2.098-.492-3.27l-.246-3.621-.105-3.691-.141-3.445-.352-3.762-.387-2.848-.316 1.582-.387 1.793zM19.297 8.93l-.281 1.266c.563-.328 1.09-.738 1.582-1.23.492-.516.914-1.055 1.266-1.617s.621-1.125.809-1.687c.211-.562.328-1.078.351-1.547.024-.328-.012-.586-.105-.773-.07-.211-.211-.316-.422-.316-.117 0-.305.07-.562.211-.234.117-.504.387-.809.809-.305.398-.621.984-.949 1.758-.305.773-.598 1.816-.879 3.129zm9.914-2.637c-.07.258-.211.516-.422.773-.187.234-.41.434-.668.598-.234.141-.48.234-.738.281s-.469 0-.633-.141c-.492-.375-.75-.773-.773-1.195-.024-.445.082-.855.316-1.23.234-.398.527-.727.879-.984.351-.281.656-.445.914-.492s.469.012.633.176c.187.141.328.34.422.598.094.234.141.504.141.809.024.305 0 .574-.07.809zm-4.851 7.488c.117-.141.34-.258.668-.351s.668-.164 1.02-.211a4.88 4.88 0 0 1 .949-.105c.305-.024.481-.024.527 0 .024.023-.035.269-.176.738l-.527 1.652-.668 1.969-.527 1.617-.422 1.441-.457 1.547a11.11 11.11 0 0 0-.246 1.406c-.047.445-.012.785.105 1.02.117.281.246.48.387.598a.81.81 0 0 0 .457.141c.469 0 1.055-.258 1.758-.773a18.78 18.78 0 0 0 2.18-1.828l2.074-2.18 1.406-1.793c.188-.234.375-.387.563-.457.211-.07.375-.059.492.035.141.094.211.246.211.457.023.211-.047.457-.211.738-.375.656-.926 1.441-1.652 2.355l-2.32 2.601c-.82.82-1.629 1.524-2.426 2.109-.773.586-1.406.891-1.898.914-.398.023-.797-.047-1.195-.211a3.94 3.94 0 0 1-1.055-.598 4.29 4.29 0 0 1-.773-.949c-.211-.375-.328-.762-.352-1.16-.07-.586-.07-1.383 0-2.391.07-1.031.199-2.074.387-3.129.188-1.078.422-2.098.703-3.059.305-.961.645-1.676 1.02-2.145zm11.953 12.024c.141.094.316.141.527.141.234 0 .457-.047.668-.141a2.19 2.19 0 0 0 .633-.387c.211-.164.363-.375.457-.633s.094-.621 0-1.09c-.094-.492-.246-1.008-.457-1.547l-.633-1.687-.598-1.547-.352-.984-.281-.738c-.07-.258-.129-.434-.176-.527l-.633.914-.949 1.336-.949 1.266-.633.773c-.187.211-.375.34-.562.387-.164.023-.305-.012-.422-.105-.117-.117-.187-.27-.211-.457 0-.211.094-.457.281-.738l.633-.879.844-1.266.773-1.16.387-.633c.047-.188-.024-.434-.211-.738-.164-.305-.187-.656-.07-1.055.094-.328.305-.703.633-1.125.328-.445.715-.844 1.16-1.195s.902-.609 1.371-.774c.469-.187.891-.187 1.266 0 .305.188.551.399.738.633.188.211.258.434.211.668a6.38 6.38 0 0 1-.211.457c-.094.188-.234.422-.422.703l-.809 1.019a11.83 11.83 0 0 0 .281 1.477l.387 1.16a9.52 9.52 0 0 0 .457 1.09l.668 1.301.633 1.336a11.15 11.15 0 0 1 .457 1.195c.117.375.152.691.105.949-.07.399-.281.879-.633 1.441-.328.563-.75 1.113-1.266 1.652a7.52 7.52 0 0 1-1.723 1.336 3.87 3.87 0 0 1-2.004.563c-.492 0-.973-.152-1.441-.457-.445-.305-.832-.656-1.16-1.055-.305-.422-.539-.832-.703-1.23-.141-.398-.152-.703-.035-.914.141-.281.27-.504.387-.668s.293-.352.527-.562l.352-.246c.117-.07.281-.141.492-.211l.738-.246.633 1.723.457.949c.141.258.27.434.387.527zm8.402-2.461c-.258-.258-.445-.504-.562-.738-.094-.258-.164-.504-.211-.738-.047-.258-.047-.516 0-.773.094-.328.234-.633.422-.914.164-.258.387-.516.668-.774.281-.281.656-.539 1.125-.773.305-.75.574-1.535.809-2.355l.668-2.285.563-2.391c.586-1.992.891-3.609.914-4.852l-.07-2.496-.07-.492-.141-.457c-.023-.187-.059-.363-.105-.527l.668-.352.527-.211a2.01 2.01 0 0 1 .457-.141c.539-.117 1.043-.176 1.512-.176.492-.023.762.059.809.246.023.117.047.328.07.633.047.305.07.68.07 1.125s-.035.949-.105 1.512c-.07.539-.199 1.113-.387 1.723l-.668 2.25-1.02 3.305-1.652 5.238 2.32-.668 2.566-.527 2.637-.316a17.52 17.52 0 0 1 2.461-.035c.141 0 .234.07.281.211.07.117.07.246 0 .387-.047.141-.176.281-.387.422-.187.117-.469.188-.844.211l-1.547.176c-.562.047-1.148.129-1.758.246a15.71 15.71 0 0 0-1.758.387 11.36 11.36 0 0 0-1.652.527l-1.195.422-1.055.422-.879.387-.809 2.566c1.359.961 2.402 1.945 3.129 2.953.75 1.008 1.289 1.934 1.617 2.777.398.984.621 1.945.668 2.883 0 1.031-.152 2.063-.457 3.094a14.57 14.57 0 0 1-1.23 2.988 14.62 14.62 0 0 1-1.758 2.672c-.656.82-1.359 1.523-2.109 2.109-.727.586-1.477 1.031-2.25 1.336-.75.305-1.465.422-2.145.352-.492-.047-.902-.211-1.23-.492-.328-.258-.574-.598-.738-1.02a4.07 4.07 0 0 1-.281-1.371 5.26 5.26 0 0 1 .141-1.476l.598-2.742 1.195-4.922 2.18-8.543zm2.074 1.652l-.879 3.234-.598 2.602-.492 2.355-.668 2.637-.492 2.32c-.141.703-.199 1.266-.176 1.688s.176.633.457.633c.68.047 1.383-.223 2.109-.809.75-.562 1.43-1.289 2.039-2.18a13.21 13.21 0 0 0 1.512-2.848c.398-1.008.598-1.945.598-2.812a9.16 9.16 0 0 0-.457-2.848 11.95 11.95 0 0 0-.738-1.442c-.258-.398-.574-.82-.949-1.266-.352-.469-.773-.891-1.266-1.266zm13.289 2.566c-.891 0-1.617-.141-2.18-.422s-1.008-.621-1.336-1.02c-.305-.422-.527-.867-.668-1.336a5.82 5.82 0 0 1-.176-1.336c0-.703.058-1.441.176-2.215l.422-2.18.422-1.723.281-.879c.211-.68.48-1.266.809-1.758.352-.516.832-.867 1.441-1.055l.738-.141c.211-.023.422-.035.633-.035.234 0 .445.035.633.105l-1.512 4.043-.809 2.637c-.211.773-.34 1.395-.387 1.863-.117 1.055-.023 1.852.281 2.391s.926.809 1.863.809c.609 0 1.195-.223 1.758-.668.562-.469 1.078-1.066 1.547-1.793-.07-.375-.105-.762-.105-1.16a13.25 13.25 0 0 1 .176-2.18l.457-2.004.563-1.687.527-1.16c.258-.562.492-.902.703-1.02.211-.141.551-.223 1.02-.246.188-.023.34-.023.457 0 .141 0 .258.012.352.035.281.07.422.211.422.422l-.07 1.688c-.047.75-.187 1.523-.422 2.32l-.492 1.688-.422 1.16c-.141.305-.281.563-.422.773l-.387.527.176 1.688c.07.422.152.75.246.984.117.211.246.363.387.457.164.07.34.105.527.105.328 0 .715-.152 1.16-.457.445-.328.902-.727 1.371-1.195l1.441-1.582 1.336-1.652 1.02-1.336.527-.738c.164-.211.316-.34.457-.387.164-.047.293-.023.387.07.094.07.141.199.141.387.023.164-.023.351-.141.563-.469.891-1.055 1.84-1.758 2.848-.68.984-1.418 1.898-2.215 2.742-.773.844-1.559 1.547-2.355 2.109s-1.547.844-2.25.844c-.633 0-1.137-.211-1.512-.633-.352-.445-.656-1.078-.914-1.898-.539.844-1.172 1.5-1.898 1.969a4.55 4.55 0 0 1-2.426.668zm23.695-7.277l-.352 2.074-.176 1.582c-.023.586.082 1.008.316 1.266s.492.387.773.387c.328 0 .727-.164 1.195-.492a13.11 13.11 0 0 0 1.547-1.231l1.617-1.617 1.477-1.652 1.16-1.406.668-.773c.141-.141.281-.223.422-.246.164-.023.293 0 .387.07s.141.199.141.387-.094.422-.281.703l-1.09 1.582-1.477 1.828-1.723 1.863a16.19 16.19 0 0 1-1.793 1.617c-.586.469-1.16.844-1.723 1.125-.539.305-1.031.457-1.477.457-.328 0-.645-.094-.949-.281a3.27 3.27 0 0 1-.773-.738c-.234-.305-.422-.645-.562-1.02-.117-.375-.164-.75-.141-1.125l.106-.844c-.984 1.102-1.981 1.98-2.988 2.637-.984.633-1.934.949-2.848.949-.328 0-.68-.082-1.055-.246s-.715-.434-1.02-.809c-.281-.375-.516-.867-.703-1.477s-.258-1.348-.211-2.215a12.5 12.5 0 0 1 .809-3.867c.469-1.219 1.055-2.273 1.758-3.164.727-.914 1.535-1.629 2.426-2.145.914-.539 1.828-.809 2.742-.809.398 0 .762.105 1.09.316.328.188.609.445.844.773a3.92 3.92 0 0 1 .563 1.019c.164.375.281.727.352 1.055l.457-2.004.422-1.863.738-2.812.809-2.988 1.019-3.551c.234-.187.457-.328.668-.422s.41-.164.598-.211c.211-.07.41-.105.598-.105.234 0 .445.035.633.105.188.047.34.199.457.457.141.234.234.598.281 1.09s.047 1.16 0 2.004c-.047 1.031-.234 2.156-.562 3.375a30.91 30.91 0 0 1-1.231 3.797l-1.793 3.902a37.96 37.96 0 0 1-2.145 3.691zm-2.074.457l.246-1.336.316-1.371-.141.07a.41.41 0 0 1-.105.07c-.258.117-.434.117-.527 0-.094-.141-.141-.352-.141-.633l-.035-.738c-.023-.375-.094-.75-.211-1.125a2.71 2.71 0 0 0-.457-1.02 1.01 1.01 0 0 0-.879-.457c-.539 0-1.09.281-1.652.844-.562.539-1.09 1.207-1.582 2.004a13.01 13.01 0 0 0-1.23 2.496c-.328.891-.516 1.688-.562 2.391-.047 1.125.094 1.934.422 2.426s.773.738 1.336.738c.422 0 .879-.164 1.371-.492a8.7 8.7 0 0 0 1.477-1.195 15.25 15.25 0 0 0 1.336-1.441l1.02-1.23zm19.477-.457l-.352 2.074-.176 1.582c-.023.586.082 1.008.317 1.266s.492.387.773.387c.328 0 .727-.164 1.196-.492.492-.328 1.007-.738 1.546-1.231l1.618-1.617 1.476-1.652 1.16-1.406.668-.773c.141-.141.282-.223.422-.246.164-.023.293 0 .387.07s.141.199.141.387-.094.422-.282.703l-1.09 1.582-1.476 1.828-1.723 1.863c-.586.609-1.183 1.148-1.793 1.617-.586.469-1.16.844-1.722 1.125-.539.305-1.032.457-1.477.457-.328 0-.644-.094-.949-.281-.281-.187-.539-.433-.773-.738s-.422-.645-.562-1.02c-.117-.375-.164-.75-.141-1.125l.106-.844c-.984 1.102-1.981 1.98-2.988 2.637-.984.633-1.934.949-2.848.949-.328 0-.68-.082-1.055-.246s-.715-.434-1.02-.809c-.281-.375-.516-.867-.703-1.477s-.258-1.348-.211-2.215c.07-1.359.34-2.648.809-3.867s1.055-2.273 1.758-3.164c.727-.914 1.535-1.629 2.426-2.145.914-.539 1.828-.809 2.742-.809.398 0 .762.105 1.09.316.328.188.609.445.844.773.234.305.422.644.563 1.019.164.375.281.727.352 1.055l.457-2.004.421-1.863.739-2.812.808-2.988 1.02-3.551c.234-.187.457-.328.668-.422s.41-.164.598-.211c.21-.07.41-.105.597-.105.235 0 .445.035.633.105.187.047.34.199.457.457.141.234.234.598.281 1.09s.047 1.16 0 2.004c-.047 1.031-.234 2.156-.562 3.375-.305 1.219-.715 2.484-1.231 3.797l-1.793 3.902c-.656 1.289-1.371 2.519-2.144 3.691zm-2.074.457l.246-1.336.316-1.371-.141.07c-.023.023-.059.047-.105.07-.258.117-.434.117-.527 0-.094-.141-.141-.352-.141-.633l-.035-.738c-.023-.375-.094-.75-.211-1.125a2.71 2.71 0 0 0-.457-1.02 1.01 1.01 0 0 0-.879-.457c-.539 0-1.09.281-1.652.844-.562.539-1.09 1.207-1.582 2.004-.492.773-.902 1.605-1.23 2.496s-.516 1.688-.562 2.391c-.047 1.125.094 1.934.422 2.426s.773.738 1.336.738c.422 0 .879-.164 1.371-.492.516-.328 1.008-.727 1.477-1.195.492-.469.938-.949 1.336-1.441l1.02-1.23zm24.222-1.055a28.18 28.18 0 0 1-2.39 3.023 22.85 22.85 0 0 1-2.848 2.602 15.28 15.28 0 0 1-3.059 1.828c-1.031.469-2.039.703-3.023.703-.516 0-1.078-.129-1.688-.387-.586-.234-1.125-.609-1.617-1.125s-.89-1.184-1.195-2.004c-.281-.82-.363-1.816-.246-2.988.094-.961.387-1.969.879-3.023A14.6 14.6 0 0 1 110 15.363c.75-.891 1.582-1.629 2.496-2.215.938-.586 1.875-.879 2.813-.879.89 0 1.535.223 1.933.668s.574.996.528 1.652c-.071.727-.282 1.395-.633 2.004-.328.609-.727 1.16-1.196 1.652a11.58 11.58 0 0 1-1.511 1.336l-1.477 1.09-1.476 1.02-1.231.844c.024.586.129 1.078.316 1.477a3.11 3.11 0 0 0 .704.984c.281.234.597.41.949.527a4.62 4.62 0 0 0 1.125.141c.797 0 1.629-.246 2.496-.738a18.13 18.13 0 0 0 2.531-1.828c.844-.727 1.617-1.477 2.321-2.25l1.792-2.004c.165-.188.329-.293.493-.317.187-.047.328-.023.422.07.117.07.175.211.175.422 0 .188-.082.41-.246.668zm-9-5.414c-.281 0-.621.141-1.019.422-.375.281-.75.691-1.125 1.231-.375.516-.727 1.16-1.055 1.934-.328.75-.574 1.617-.738 2.601l.914-.633.984-.738c1.008-.773 1.711-1.453 2.11-2.039s.621-1.09.667-1.512c.047-.445 0-.762-.14-.949-.141-.211-.34-.316-.598-.316zm22.395 5.414c-.703 1.031-1.5 2.039-2.391 3.023a22.78 22.78 0 0 1-2.848 2.602c-.984.75-2.003 1.359-3.058 1.828-1.031.469-2.039.703-3.024.703-.515 0-1.078-.129-1.687-.387-.586-.234-1.125-.609-1.617-1.125s-.891-1.184-1.196-2.004c-.281-.82-.363-1.816-.246-2.988.094-.961.387-1.969.879-3.023.516-1.078 1.137-2.062 1.864-2.953.75-.891 1.582-1.629 2.496-2.215.937-.586 1.875-.879 2.812-.879.891 0 1.535.223 1.934.668s.574.996.527 1.652c-.07.727-.281 1.395-.633 2.004-.328.609-.726 1.16-1.195 1.652s-.973.938-1.512 1.336l-1.476 1.09-1.477 1.02-1.23.844c.023.586.129 1.078.316 1.477s.422.727.703.984c.281.234.598.41.949.527a4.62 4.62 0 0 0 1.125.141c.797 0 1.629-.246 2.496-.738.868-.516 1.711-1.125 2.532-1.828.843-.727 1.617-1.477 2.32-2.25l1.793-2.004c.164-.188.328-.293.492-.317.188-.047.328-.023.422.07.117.07.176.211.176.422 0 .188-.082.41-.246.668zm-9-5.414c-.281 0-.621.141-1.02.422-.375.281-.75.691-1.125 1.231-.375.516-.726 1.16-1.054 1.934-.329.75-.575 1.617-.739 2.601l.914-.633.985-.738c1.008-.773 1.711-1.453 2.109-2.039s.621-1.09.668-1.512c.047-.445 0-.762-.141-.949-.14-.211-.339-.316-.597-.316zm16.91 13.606c-.539 0-1.008-.106-1.406-.316-.375-.187-.68-.445-.914-.773s-.387-.703-.457-1.125c-.071-.445-.047-.914.07-1.406.07-.328.187-.762.351-1.301l.493-1.793.492-1.934c.164-.656.269-1.242.316-1.758.047-.539.024-.973-.07-1.301-.094-.352-.293-.527-.598-.527-.375 0-.761.129-1.16.387-.398.234-.808.563-1.23.984-.399.422-.809.914-1.231 1.477l-1.195 1.688-.528 2.109-.386 1.617-.281 1.266-.247 1.02c-.07.234-.281.469-.632.703a6.2 6.2 0 0 1-1.125.527c-.399.141-.739.211-1.02.211-.305 0-.433-.105-.387-.316.024-.141.106-.457.246-.949l.458-1.723.527-2.145.527-2.145.387-1.793.422-1.969.633-2.461c.164-.141.328-.246.492-.316.187-.094.375-.164.562-.211.188-.07.387-.117.598-.141a4.53 4.53 0 0 1 .562.035 1.95 1.95 0 0 1 .493.141c.187.047.351.129.492.246-.071.164-.153.399-.246.703l-.282.914c-.093.375-.21.762-.351 1.16.305-.422.644-.844 1.019-1.266a10.15 10.15 0 0 1 1.266-1.195 6.66 6.66 0 0 1 1.477-.844c.515-.234 1.043-.352 1.582-.352a1.97 1.97 0 0 1 1.195.387c.352.258.621.621.809 1.09.21.445.328.984.351 1.617.047.633-.035 1.324-.246 2.074l-.387 1.547-.457 1.758-.633 2.18c-.14.516-.199.961-.175 1.336.047.375.281.563.703.563s.949-.258 1.582-.773c.656-.516 1.312-1.137 1.969-1.863l1.863-2.215 1.336-1.863c.211-.305.41-.504.597-.598s.329-.105.422-.035c.118.07.176.234.176.492 0 .234-.094.539-.281.914-.164.328-.422.762-.774 1.301-.328.539-.726 1.113-1.195 1.723l-1.512 1.863a19.08 19.08 0 0 1-1.687 1.688c-.586.492-1.172.891-1.758 1.195-.562.328-1.101.492-1.617.492z" fill="#333"/></svg>